# xmcd
#
# Track frame offsets:
#	150
#	18888
#	37180
#	57634
#	71981
#	85476
#	93506
#	106374
#	126063
#	151802
#	170521
#	182247
#	203382
#	219915
#
# Disc length: 3170 seconds
#
# Revision: 1
# Processed by: cddbd v1.5.2PL0 Copyright (c) Steve Scherf et al.
# Submitted via: audiograbber 1.83.01
#
DISCID=c20c600e
DTITLE=McClain, Antsy and The Trailer Park Troubadours - New Good Old Days
DYEAR=2008
DGENRE=Rock and Roll
TTITLE0=Right Side of the Dirt
TTITLE1=Another Happy Song
TTITLE2=Blah Blah Song, The
TTITLE3=When You're Laughing
TTITLE4=New Good Old Days
TTITLE5=Junk Drawer of Your Heart, The
TTITLE6=Bathroom Songwriter, The
TTITLE7=Twitchin' (That's What I Do)
TTITLE8=Last Man on Earth to Get the Cooties, The
TTITLE9=Good Times Roll
TTITLE10=Jenny's Jungle Room
TTITLE11=All in the Trip
TTITLE12=Life Like Ours, A
TTITLE13=Big Time, The
EXTD=New Good Old Days
EXTT0=
EXTT1=
EXTT2=
EXTT3=
EXTT4=
EXTT5=
EXTT6=
EXTT7=
EXTT8=
EXTT9=
EXTT10=
EXTT11=
EXTT12=
EXTT13=
PLAYORDER=
